<svg width="24" height="24" viewBox="0 0 24 24" fill="none" xmlns="http://www.w3.org/2000/svg">
<path d="M4.00014 21C4.07985 21.0097 4.16043 21.0097 4.24014 21L8.24014 20C8.41758 19.9578 8.58011 19.8679 8.71014 19.74L21.0001 7.41003C21.3726 7.0353 21.5817 6.5284 21.5817 6.00003C21.5817 5.47165 21.3726 4.96475 21.0001 4.59003L19.4201 3.00003C19.2344 2.81407 19.0138 2.66655 18.771 2.56591C18.5282 2.46526 18.268 2.41345 18.0051 2.41345C17.7423 2.41345 17.4821 2.46526 17.2393 2.56591C16.9965 2.66655 16.7759 2.81407 16.5901 3.00003L4.30014 15.29C4.17092 15.4206 4.07788 15.5826 4.03014 15.76L3.03014 19.76C2.99419 19.8894 2.98468 20.0247 3.00216 20.1579C3.01965 20.291 3.06377 20.4193 3.1319 20.535C3.20003 20.6507 3.29076 20.7515 3.3987 20.8314C3.50664 20.9113 3.62956 20.9687 3.76014 21C3.83985 21.0097 3.92043 21.0097 4.00014 21ZM18.0001 4.41003L19.5901 6.00003L18.0001 7.59003L16.4201 6.00003L18.0001 4.41003ZM5.91014 16.51L15.0001 7.41003L16.5901 9.00003L7.49014 18.1L5.38014 18.62L5.91014 16.51Z" fill="#09332B"/>
</svg>
